<svg width="24" height="24" viewBox="0 0 24 24" fill="none" xmlns="http://www.w3.org/2000/svg">
<mask id="path-1-inside-1_334_991" fill="white">
<path d="M15.7123 16.773L7.22699 8.28777C6.93708 7.99785 6.93708 7.51702 7.22699 7.22711C7.51691 6.93719 7.99774 6.93719 8.28765 7.22711L16.7729 15.7124C17.0628 16.0023 17.0628 16.4831 16.7729 16.773C16.483 17.063 16.0022 17.063 15.7123 16.773Z"/>
</mask>
<path d="M15.7123 16.773L7.22699 8.28777C6.93708 7.99785 6.93708 7.51702 7.22699 7.22711C7.51691 6.93719 7.99774 6.93719 8.28765 7.22711L16.7729 15.7124C17.0628 16.0023 17.0628 16.4831 16.7729 16.773C16.483 17.063 16.0022 17.063 15.7123 16.773Z" fill="#1C274C"/>
<path d="M15.7123 16.773L16.7729 15.7124L8.28765 7.22711L7.22699 8.28777L6.16633 9.34843L14.6516 17.8337L15.7123 16.773ZM7.22699 8.28777L8.28765 7.22711C8.58353 7.52298 8.58353 7.9919 8.28765 8.28777L7.22699 7.22711L6.16633 6.16645C5.29063 7.04215 5.29063 8.47273 6.16633 9.34843L7.22699 8.28777ZM7.22699 7.22711L8.28765 8.28777C7.99178 8.58364 7.52287 8.58364 7.22699 8.28777L8.28765 7.22711L9.34831 6.16645C8.47261 5.29075 7.04203 5.29075 6.16633 6.16645L7.22699 7.22711ZM8.28765 7.22711L7.22699 8.28777L15.7123 16.773L16.7729 15.7124L17.8336 14.6517L9.34831 6.16645L8.28765 7.22711ZM16.7729 15.7124L15.7123 16.773C15.4164 16.4772 15.4164 16.0083 15.7123 15.7124L16.7729 16.773L17.8336 17.8337C18.7093 16.958 18.7093 15.5274 17.8336 14.6517L16.7729 15.7124ZM16.7729 16.773L15.7123 15.7124C16.0081 15.4165 16.4771 15.4165 16.7729 15.7124L15.7123 16.773L14.6516 17.8337C15.5273 18.7094 16.9579 18.7094 17.8336 17.8337L16.7729 16.773Z" fill="url(#paint0_linear_334_991)" mask="url(#path-1-inside-1_334_991)"/>
<mask id="path-3-inside-2_334_991" fill="white">
<path d="M7.22706 16.773C6.93715 16.4831 6.93715 16.0023 7.22706 15.7124L15.7123 7.22711C16.0023 6.93719 16.4831 6.93719 16.773 7.22711C17.0629 7.51702 17.0629 7.99785 16.773 8.28777L8.28772 16.773C7.99781 17.063 7.51698 17.063 7.22706 16.773Z"/>
</mask>
<path d="M7.22706 16.773C6.93715 16.4831 6.93715 16.0023 7.22706 15.7124L15.7123 7.22711C16.0023 6.93719 16.4831 6.93719 16.773 7.22711C17.0629 7.51702 17.0629 7.99785 16.773 8.28777L8.28772 16.773C7.99781 17.063 7.51698 17.063 7.22706 16.773Z" fill="#1C274C"/>
<path d="M7.22706 16.773L8.28772 15.7124C8.5836 16.0083 8.5836 16.4772 8.28772 16.773L7.22706 15.7124L6.1664 14.6517C5.2907 15.5274 5.2907 16.958 6.1664 17.8337L7.22706 16.773ZM7.22706 15.7124L8.28772 16.773L16.773 8.28777L15.7123 7.22711L14.6517 6.16645L6.1664 14.6517L7.22706 15.7124ZM15.7123 7.22711L16.773 8.28777C16.4771 8.58364 16.0082 8.58364 15.7123 8.28777L16.773 7.22711L17.8337 6.16645C16.958 5.29075 15.5274 5.29075 14.6517 6.16645L15.7123 7.22711ZM16.773 7.22711L15.7123 8.28777C15.4165 7.99189 15.4165 7.52298 15.7123 7.22711L16.773 8.28777L17.8337 9.34843C18.7094 8.47273 18.7094 7.04215 17.8337 6.16645L16.773 7.22711ZM16.773 8.28777L15.7123 7.22711L7.22706 15.7124L8.28772 16.773L9.34838 17.8337L17.8337 9.34843L16.773 8.28777ZM8.28772 16.773L7.22706 15.7124C7.52294 15.4165 7.99185 15.4165 8.28772 15.7124L7.22706 16.773L6.1664 17.8337C7.0421 18.7094 8.47268 18.7094 9.34838 17.8337L8.28772 16.773Z" fill="url(#paint1_linear_334_991)" mask="url(#path-3-inside-2_334_991)"/>
<defs>
<linearGradient id="paint0_linear_334_991" x1="12.5303" y1="11.4697" x2="11.4696" y2="12.5304" gradientUnits="userSpaceOnUse">
<stop stop-color="#539CD0"/>
<stop offset="1" stop-color="#75C1E5"/>
</linearGradient>
<linearGradient id="paint1_linear_334_991" x1="16.773" y1="7.22711" x2="7.22706" y2="16.773" gradientUnits="userSpaceOnUse">
<stop stop-color="#539CD0"/>
<stop offset="1" stop-color="#75C1E5"/>
</linearGradient>
</defs>
</svg>
